<svg xmlns="http://www.w3.org/2000/svg" viewBox="0 0 51.2 46.08"><defs><style>.cls-1{opacity:0.8;}.cls-2{fill:#fff;}</style></defs><title>Ресурс 39</title><g id="Слой_2" data-name="Слой 2"><g id="Слой_1-2" data-name="Слой 1"><g class="cls-1"><path class="cls-2" d="M51.19,15.36c-.09-1.46-1.82-2.6-5.3-3.47a1.9,1.9,0,0,0,.18-.8v-6h0C45.76.15,25.38,0,23,0S.32.15,0,5.12H0v6C0,12.71,2.1,14,5.21,14.93a1.91,1.91,0,0,0-.08.43h0v6c-3.35.87-5,2-5.11,3.43H0v6c0,1.13,1,2.08,2.69,2.88a1.94,1.94,0,0,0-.12.53h0v6c0,2.84,6.4,4.6,13.5,5.42a.67.67,0,0,0,.15,0h0c1.37.15,2.76.28,4.14.36l.08,0h0c1.75.1,3.47.16,5.08.16s3.33-.05,5.08-.16h0l.08,0c1.37-.09,2.77-.21,4.14-.36h0a1,1,0,0,0,.15,0c7.1-.83,13.49-2.59,13.5-5.43v-6h0c-.06-1-1-1.92-2.71-2.65a1.88,1.88,0,0,0,.17-.77V25.14c3.06-.94,5.12-2.2,5.12-3.81v-6ZM44.28,31l-.29.25a7.63,7.63,0,0,1-2.18,1.17V28.36a12.74,12.74,0,0,0,2.56-1.18v3.53a.54.54,0,0,1-.1.28ZM25.2,35H23.9V30.72h.84c.86,0,1.72,0,2.57-.08v4.26l-.55,0L25.2,35Zm-3.72,0-1.17,0h-.15l-1.38-.06V30.62c.85,0,1.71.07,2.57.08h.84V35h-.72ZM6.05,33,6,33V28.88c.8.22,1.65.41,2.56.59v4.16q-1.17-.25-2.16-.52L6.05,33Zm18,7.07h.7v4.26q-1.77,0-3.41-.1V40c.85,0,1.71.07,2.57.08Zm3.25,0q1.29,0,2.57-.08v4.26c-1.1.05-2.23.09-3.41.1V40.1h.84Zm6.84-.39v4.24q-1.23.13-2.56.23V39.91c.86-.05,1.72-.12,2.56-.2Zm1.71-.18c.88-.11,1.73-.23,2.56-.36v4.19c-.8.14-1.66.27-2.56.39Zm4.27-.67c.9-.18,1.76-.38,2.56-.59v4.12c-.76.22-1.62.43-2.56.63Zm-29,0V43c-.94-.2-1.8-.41-2.56-.63V38.27c.8.21,1.65.41,2.56.59Zm1.71.3c.82.14,1.68.26,2.56.36v4.22c-.9-.12-1.75-.25-2.56-.39Zm4.27.55c.84.08,1.7.15,2.56.21v4.25q-1.32-.09-2.56-.23ZM15,34.6l-.26,0-.18,0V30.32c.84.08,1.69.15,2.56.21v4.25L15,34.6ZM12.8,30.13v4.22c-.9-.12-1.75-.25-2.56-.39V29.77c.82.14,1.68.26,2.56.36Zm16.78,4.6-.57,0V30.52c.87-.06,1.72-.12,2.56-.21v4.24L30,34.71l-.37,0Zm3.7-.38V30.13q1.32-.16,2.56-.36V34c-.8.14-1.66.28-2.56.39Zm4.27-4.89c.91-.17,1.76-.38,2.56-.59V33q-1.14.33-2.56.63Zm-11.67-3.9L24,25.5h-.1V21.23c.86,0,1.72.07,2.57.08h.84v4.26l-1.24,0ZM6,13.37V9.25c.8.21,1.65.41,2.56.59V14l-.32-.07c-.45-.1-.9-.2-1.32-.32L6,13.37Zm15.51-2.3h.7v4.26c-1.15,0-2.29,0-3.41-.1V11c.85,0,1.71.07,2.57.08Zm3.25,0c.86,0,1.72,0,2.57-.08v4.25l-.43,0h0l-1.75.05h-1.2V11.09h.84Zm19.45.43h0l-.31.24a8.41,8.41,0,0,1-2,1V8.73a12.63,12.63,0,0,0,2.56-1.17v3.53a.68.68,0,0,1-.2.42Zm-10.9,3.22V10.5q1.32-.16,2.56-.36v4.18c-.81.14-1.66.27-2.56.39ZM37.55,14V9.84q1.36-.27,2.56-.59v4.11c-.77.22-1.63.43-2.56.63Zm-6-3.31v4.23c-.83.08-1.68.16-2.56.23V10.9q1.3-.09,2.56-.21ZM14.51,14.92V10.69c.84.08,1.69.15,2.56.21v4.25c-.87-.06-1.72-.13-2.56-.22ZM12.8,10.5v4.22l-.51-.06-.32,0-1.45-.23-.28-.05V10.15c.82.13,1.68.25,2.56.36ZM22,25.38l-.35,0L20,25.21l-.33,0h-.07V20.93c.84.08,1.7.15,2.56.21v4.25Zm-5.64-.64-1-.17V20.39c.83.13,1.68.25,2.56.36V25l-1.53-.22Zm-2.68-4.66v4.16c-.95-.2-1.8-.42-2.56-.64V19.49c.8.22,1.65.41,2.56.59ZM9.39,19V23A5.29,5.29,0,0,1,6.9,21.51l-.06-.1,0-.08V17.8A12.8,12.8,0,0,0,9.39,19Zm20.47,2.35c.86,0,1.72,0,2.57-.08v4.26c-1.12.05-2.26.08-3.41.1V21.33h.84Zm11,3.28-1.14.19-.68.1L38.4,25V20.75c.88-.1,1.73-.23,2.56-.36v4.19l-.08,0Zm-5.77.73-1,.07V21.14c.87-.06,1.72-.12,2.56-.21v4.23l-1.5.15Zm9.75-1.6-1.33.34-.65.15-.2,0V20.08c.91-.18,1.76-.37,2.56-.59v4.13l-.37.1Zm4.63-8.3c-.08.58-1.39,1.35-3.73,2.07A57.57,57.57,0,0,1,32,19.54l-.92,0-.77,0-2.16,0L26,19.6l-.77,0-.92,0a57.38,57.38,0,0,1-13.73-2.05C8.25,16.77,6.94,16,6.84,15.43a.13.13,0,0,1,0-.05l.18,0,1,.23c1.7.36,3.57.66,5.57.89h0c1.36.15,2.78.28,4.23.36h0c1,.06,2.1.1,3.18.13l1.93,0h1.37a65.38,65.38,0,0,0,15.94-2l.54-.16.33-.09.89-.31.15-.05.7-.28.19-.08c.24-.11.47-.22.68-.33l.27-.15.3-.18.17-.1c3.82.83,4.83,1.73,4.93,2.09ZM23,1.71c14.07,0,21.19,2.21,21.32,3.48-.1.58-1.42,1.34-3.73,2.06A57.19,57.19,0,0,1,26.9,9.3l-.92,0-.77,0c-.71,0-1.43,0-2.16,0s-1.46,0-2.16,0l-.77,0-.92,0A57.19,57.19,0,0,1,5.45,7.25C3.13,6.53,1.82,5.77,1.72,5.19,1.85,3.92,9,1.71,23,1.71ZM1.71,11.09V7.56A12.44,12.44,0,0,0,4.27,8.73v4.09c-1.66-.62-2.56-1.25-2.56-1.73ZM5.84,22.9l0,0c1.17,1.18,3.58,2.11,6.6,2.8l.21,0,.68.15A66.26,66.26,0,0,0,23,27.15h0c1.16.07,2.34.11,3.55.13l1.57,0,1.81,0c1.12,0,2.22-.07,3.3-.13h0a66.16,66.16,0,0,0,9.85-1.26,15.7,15.7,0,0,1-2.52,1A58.73,58.73,0,0,1,25.88,29l-.58,0h-.63L23,29l-2.16,0-.77,0-.92,0A57.37,57.37,0,0,1,5.45,26.87c-2.35-.72-3.66-1.5-3.73-2.07.1-.32,1-1.13,4.13-1.9ZM1.71,30.72V27.18a12.55,12.55,0,0,0,2.56,1.18v4.07l-.49-.19h0c-1.34-.55-2.06-1.1-2.06-1.53ZM4.27,40.1V36.57a12.86,12.86,0,0,0,2.56,1.18v4.08c-1.66-.62-2.56-1.25-2.56-1.72Zm40.11,1.72V37.75a12.86,12.86,0,0,0,2.56-1.18V40.1c0,.48-.9,1.11-2.56,1.73Zm2.55-7.63c-.09.58-1.4,1.34-3.73,2.06a57.29,57.29,0,0,1-13.73,2.05l-.92,0-.77,0-2.16,0-2.16,0-.77,0-.93,0A57.12,57.12,0,0,1,8,36.26c-2.26-.7-3.56-1.44-3.72-2l.79.26.08,0,.71.2.28.08.42.11a62.31,62.31,0,0,0,11.36,1.62h0c1.32.07,2.68.12,4,.14h2.52c1.25,0,2.48-.07,3.68-.14h0q2.19-.14,4.24-.37h.07c1.52-.17,3-.39,4.29-.64l.81-.15.18,0a23,23,0,0,0,6.2-2l.23-.14.28-.17.25-.16c1.69.6,2.15,1.14,2.2,1.35Zm0-11.15V19a12.61,12.61,0,0,0,2.56-1.17v3.53c0,.48-.9,1.1-2.56,1.72Zm0,0"/></g></g></g></svg>