<svg xmlns="http://www.w3.org/2000/svg" viewBox="0 0 927.5 389.56"><defs><style>.cls-1,.cls-3,.cls-4{fill:none;stroke-miterlimit:10;}.cls-1,.cls-3{stroke:#fff;}.cls-1{opacity:0.5;}.cls-2{fill:#fff;}.cls-4{stroke:#edeff0;}.cls-5{fill:#ffd152;}</style></defs><title>Ресурс 45</title><g id="Слой_2" data-name="Слой 2"><g id="Слой_1-2" data-name="Слой 1"><path class="cls-1" d="M881,318.28H124.5a124,124,0,0,1-124-124h0a124,124,0,0,1,124-124H513"/><line class="cls-2" x1="154" y1="356.78" x2="154" y2="389.56"/><line class="cls-3" x1="154" y1="356.78" x2="154" y2="385.99"/><circle class="cls-2" cx="154" cy="385.81" r="3.76"/><line class="cls-2" x1="445.2" y1="356.78" x2="445.2" y2="389.56"/><line class="cls-3" x1="445.2" y1="356.78" x2="445.2" y2="385.99"/><circle class="cls-2" cx="445.2" cy="385.81" r="3.76"/><line class="cls-2" x1="299.6" y1="276.78" x2="299.6" y2="244"/><line class="cls-3" x1="299.6" y1="276.78" x2="299.6" y2="247.57"/><circle class="cls-2" cx="299.6" cy="247.76" r="3.76"/><line class="cls-2" x1="591.6" y1="276.78" x2="591.6" y2="244"/><line class="cls-3" x1="591.6" y1="276.78" x2="591.6" y2="247.57"/><circle class="cls-2" cx="591.6" cy="247.76" r="3.76"/><line class="cls-2" x1="883.6" y1="276.78" x2="883.6" y2="244"/><line class="cls-3" x1="883.6" y1="276.78" x2="883.6" y2="247.57"/><circle class="cls-2" cx="883.6" cy="247.76" r="3.76"/><line class="cls-2" x1="514.6" y1="32.78" x2="514.6"/><line class="cls-3" x1="514.6" y1="32.78" x2="514.6" y2="3.57"/><circle class="cls-2" cx="514.6" cy="3.76" r="3.76"/><line class="cls-2" x1="736.4" y1="356.78" x2="736.4" y2="389.56"/><line class="cls-3" x1="736.4" y1="356.78" x2="736.4" y2="385.99"/><circle class="cls-2" cx="736.4" cy="385.81" r="3.76"/><circle class="cls-2" cx="155" cy="316.78" r="44"/><circle class="cls-4" cx="155" cy="316.78" r="44"/><circle class="cls-2" cx="515" cy="72.78" r="44"/><circle class="cls-4" cx="515" cy="72.78" r="44"/><circle class="cls-2" cx="300.6" cy="316.78" r="44"/><circle class="cls-4" cx="300.6" cy="316.78" r="44"/><circle class="cls-2" cx="446.2" cy="316.78" r="44"/><circle class="cls-4" cx="446.2" cy="316.78" r="44"/><circle class="cls-2" cx="591.8" cy="316.78" r="44"/><circle class="cls-4" cx="591.8" cy="316.78" r="44"/><circle class="cls-2" cx="737.4" cy="316.78" r="44"/><circle class="cls-4" cx="737.4" cy="316.78" r="44"/><circle class="cls-2" cx="883" cy="316.78" r="44"/><circle class="cls-4" cx="883" cy="316.78" r="44"/><path class="cls-5" d="M760.18,305.3h-30l29.62-5a.82.82,0,0,0,.67-.94l-1-6.51a.82.82,0,0,0-.33-.54.83.83,0,0,0-.61-.14l-34.27,5.68a.82.82,0,1,0,.27,1.62l3.42-.57,3.41,4.52-2.41.4a2.89,2.89,0,0,1-.71,2.27.82.82,0,0,0,.82.82h3.28l-3.69,4.92h-2.87a.82.82,0,0,0,0,1.64h33.62v23.78a2.46,2.46,0,0,1-2.46,2.46h-41a2.46,2.46,0,0,1-2.46-2.46v-36.9h7l4.3,5.74-4.3,5.74H715.9a.82.82,0,0,0,0,1.64h4.92a.82.82,0,0,0,.66-.33l4.92-6.56a.82.82,0,0,0,0-1l-4.92-6.56a.82.82,0,0,0-.66-.33h-8.2a.82.82,0,0,0-.82.82v37.72a4.1,4.1,0,0,0,4.1,4.1h41a4.1,4.1,0,0,0,4.1-4.1V306.12a.82.82,0,0,0-.82-.82ZM757.95,294l.78,4.89-3.2.54-3.35-4.47Zm-7.59,1.26,3.35,4.48-5.84,1-3.35-4.49Zm-7.66,1.27,3.35,4.49-5.29.89-3.36-4.5Zm-13,2.15,5.84-1,3.36,4.51-5.8,1Zm.92,13.23,3.69-4.92h5.33L736,311.86Zm7.38,0,3.69-4.92h5.33l-3.69,4.92Zm7.38,0,3.69-4.92h5.33l-3.69,4.92Zm13.94,0H752.8l3.69-4.92h2.87Zm0,0"/><path class="cls-5" d="M742.14,316a.82.82,0,0,0-.82.82v12.3H717.54a.82.82,0,0,0,0,1.64h37.72a.82.82,0,1,0,0-1.64H743v-12.3a.82.82,0,0,0-.82-.82Zm0,0"/><path class="cls-5" d="M909.24,291.08H854.76a1,1,0,0,0-1,1v34.05a1,1,0,0,0,1,1h54.48a1,1,0,0,0,1-1V292.08a1,1,0,0,0-1-1Zm-1,34.05H855.76v-32h52.48Zm0,0"/><path class="cls-5" d="M887.22,308.24l-7.16-4.13a1,1,0,0,0-1.5.87v8.26a1,1,0,0,0,1.5.87l7.16-4.13a1,1,0,0,0,0-1.73Zm-6.66,3.26v-4.79l4.15,2.4Zm0,0"/><path class="cls-5" d="M909.24,340.49h-1.9v-5.74a3.08,3.08,0,0,0-1.33-2.53,4.21,4.21,0,0,0-8.36,0,3.08,3.08,0,0,0-1.33,2.53v5.74h-2.2v-5.74a3.08,3.08,0,0,0-1.33-2.53,4.21,4.21,0,0,0-8.36,0,3.08,3.08,0,0,0-1.33,2.53v5.74h-2.2v-5.74a3.08,3.08,0,0,0-1.33-2.53,4.21,4.21,0,0,0-8.36,0,3.08,3.08,0,0,0-1.33,2.53v5.74h-2.2v-5.74a3.08,3.08,0,0,0-1.33-2.53,4.21,4.21,0,0,0-8.36,0,3.08,3.08,0,0,0-1.33,2.53v5.74h-1.9a1,1,0,0,0,0,2h54.48a1,1,0,1,0,0-2Zm-47.07-10a2.2,2.2,0,0,1,2,1.2h-3.92a2.2,2.2,0,0,1,2-1.2Zm3.51,10h-7v-5.74a1.08,1.08,0,0,1,1.07-1.07h4.86a1.08,1.08,0,0,1,1.07,1.07Zm9.71-10a2.2,2.2,0,0,1,2,1.2h-3.92a2.2,2.2,0,0,1,2-1.2Zm3.51,10h-7v-5.74a1.08,1.08,0,0,1,1.07-1.07h4.86a1.08,1.08,0,0,1,1.07,1.07Zm9.71-10a2.2,2.2,0,0,1,2,1.2h-3.92a2.2,2.2,0,0,1,2-1.2Zm3.51,10h-7v-5.74a1.08,1.08,0,0,1,1.07-1.07H891a1.08,1.08,0,0,1,1.07,1.07v5.74Zm9.72-10a2.2,2.2,0,0,1,2,1.2h-3.92a2.2,2.2,0,0,1,2-1.2Zm3.5,10h-7v-5.74a1.08,1.08,0,0,1,1.07-1.07h4.86a1.08,1.08,0,0,1,1.07,1.07v5.74Zm0,0"/><path class="cls-5" d="M882,298.29a10.82,10.82,0,1,0,10.82,10.82A10.83,10.83,0,0,0,882,298.29Zm0,19.63a8.81,8.81,0,1,1,8.81-8.81,8.82,8.82,0,0,1-8.81,8.81Zm0,0"/><path class="cls-5" d="M882,320.89a1,1,0,0,0-1,1v1.24a1,1,0,1,0,2,0v-1.24a1,1,0,0,0-1-1Zm0,0"/><path class="cls-5" d="M882,294.08a1,1,0,0,0-1,1v1.24a1,1,0,1,0,2,0v-1.24a1,1,0,0,0-1-1Zm0,0"/><path class="cls-5" d="M869.22,308.1h-9.65a1,1,0,0,0,0,2h9.65a1,1,0,0,0,0-2Zm0,0"/><path class="cls-5" d="M904.43,308.1h-9.65a1,1,0,1,0,0,2h9.65a1,1,0,0,0,0-2Zm0,0"/><path class="cls-5" d="M526.25,77a16.62,16.62,0,1,0-26.48,0,27.52,27.52,0,0,1,5.67,16.55V100a5.18,5.18,0,0,0,5.17,5.17h4.81a5.18,5.18,0,0,0,5.17-5.17V93.56A27.26,27.26,0,0,1,526.25,77Zm-24.78-1.26a14.35,14.35,0,0,1-3-8.9,14.57,14.57,0,0,1,14.28-14.35A14.49,14.49,0,0,1,524.55,75.7a29.41,29.41,0,0,0-6.12,17.46H507.56a29.68,29.68,0,0,0-6.1-17.44Zm6.1,23.54v-.86l10.89,1.25V100a3.06,3.06,0,0,1,0,.52Zm0-3v-1h10.89v2.21Zm3,6.77a3,3,0,0,1-2.66-1.57l9.17,1.05a3,3,0,0,1-1.7.52Zm0,0"/><path class="cls-5" d="M502.47,68.56a10.92,10.92,0,0,1-.12-1.7,1.07,1.07,0,1,0-2.13,0,13.06,13.06,0,0,0,.14,2,1.07,1.07,0,0,0,1.05.91h.16a1.07,1.07,0,0,0,.9-1.21Zm0,0"/><path class="cls-5" d="M508.73,84.74a1.07,1.07,0,0,0,1-1.4,33.8,33.8,0,0,0-5.23-9.94,10.71,10.71,0,0,1-1-1.57,1.07,1.07,0,1,0-1.89,1,12.88,12.88,0,0,0,1.19,1.89,31.67,31.67,0,0,1,4.9,9.32,1.07,1.07,0,0,0,1,.73Zm0,0"/><path class="cls-5" d="M524.19,70.61a1.06,1.06,0,0,0-1.4.56,10.67,10.67,0,0,1-1.3,2.22,1.07,1.07,0,0,0,1.7,1.29A12.8,12.8,0,0,0,524.75,72a1.06,1.06,0,0,0-.56-1.4Zm0,0"/><path class="cls-5" d="M513,56.3A10.67,10.67,0,0,1,523.65,67c0,.33,0,.67,0,1a1.07,1.07,0,0,0,1,1.16h.1a1.07,1.07,0,0,0,1.06-1c0-.39.05-.8.05-1.19A12.8,12.8,0,0,0,513,54.17a1.07,1.07,0,0,0,0,2.13Zm0,0"/><path class="cls-5" d="M513,48.5a1.07,1.07,0,0,0,1.07-1.07v-6a1.07,1.07,0,0,0-2.13,0v6A1.07,1.07,0,0,0,513,48.5Zm0,0"/><path class="cls-5" d="M502.22,50.61a1.07,1.07,0,0,0,1.85-1.07l-3-5.17a1.07,1.07,0,1,0-1.84,1.07Zm0,0"/><path class="cls-5" d="M535.77,79.06l-5.17-3a1.07,1.07,0,0,0-1.06,1.85l5.16,3a1.07,1.07,0,0,0,1.07-1.85Zm0,0"/><path class="cls-5" d="M490.23,55.23l5.17,3a1.07,1.07,0,0,0,1.07-1.85l-5.17-3a1.07,1.07,0,0,0-1.07,1.84Zm0,0"/><path class="cls-5" d="M538.67,66.08h-6a1.07,1.07,0,0,0,0,2.13h6a1.07,1.07,0,0,0,0-2.13Zm0,0"/><path class="cls-5" d="M494.36,67.14a1.07,1.07,0,0,0-1.07-1.07h-6a1.07,1.07,0,0,0,0,2.13h6a1.07,1.07,0,0,0,1.07-1.07Zm0,0"/><path class="cls-5" d="M530.07,58.35a1.06,1.06,0,0,0,.53-.14l5.17-3a1.07,1.07,0,1,0-1.07-1.84l-5.16,3a1.07,1.07,0,0,0,.53,2Zm0,0"/><path class="cls-5" d="M495.4,76.08l-5.17,3a1.07,1.07,0,1,0,1.07,1.85l5.17-3a1.07,1.07,0,0,0-1.07-1.85Zm0,0"/><path class="cls-5" d="M522.32,51a1.06,1.06,0,0,0,1.46-.39l3-5.17a1.07,1.07,0,0,0-1.85-1.07l-3,5.17a1.07,1.07,0,0,0,.39,1.46Zm0,0"/><path class="cls-5" d="M146,310.06l-.2.07,2.67.56a34,34,0,0,0,6.92.68,36.2,36.2,0,0,0,3.66-.18,32.9,32.9,0,0,0,5.59-1l.21,0h0c5.26-1.47,8.52-4.08,8.52-6.5,0-3.42-6.64-6.95-17.76-6.95s-17.76,3.53-17.76,6.95c0,2.38,3.12,4.92,8.19,6.41Zm6.84-3.4a2.71,2.71,0,0,1-2.12-2.08l-.08-.52-.52-.11a.79.79,0,0,1-.26-.09l.11-.36a1,1,0,0,1,.51-.28l.35-.1.15-.33a3,3,0,0,1,.63-.92l.29-.28a1.6,1.6,0,0,0,.5-.68,7.8,7.8,0,0,0,2.66.3h.33c3.29,0,4.1.9,4.41,1.58l.15.32.34.09a1,1,0,0,1,.51.28l.11.37a.81.81,0,0,1-.26.09l-.52.11-.08.52a2.71,2.71,0,0,1-2.12,2.08l-.6.2.17,1.43a1.44,1.44,0,0,0,1,1.14l.57.21-.57,0c-.92.07-1.87.12-2.88.12a37.36,37.36,0,0,1-3.79-.19l.51-.18a1.44,1.44,0,0,0,1-1.15l.16-1.43Zm2.73-8.41c10.79,0,16.21,3.47,16.21,5.4,0,1.59-3.33,4.33-9.56,5.54L159,308v-.08a4,4,0,0,0,2.46-2.61,1.73,1.73,0,0,0,.82-.69,1.37,1.37,0,0,0,.13-1.1l-.15-.47a2,2,0,0,0-1.23-1.19c-1.14-1.94-3.75-2.17-5.65-2.17H155a6,6,0,0,1-2.2-.26,1.83,1.83,0,0,1-.48-.22,1,1,0,0,0-1-.07l-.46.26v.48a3,3,0,0,0,0,.52v0l0,0c-.09.08-.21.18-.34.33a4.57,4.57,0,0,0-.79,1.07,2,2,0,0,0-1.21,1.18l-.15.47a1.36,1.36,0,0,0,.13,1.1,1.73,1.73,0,0,0,.82.69,4,4,0,0,0,2.46,2.61V308l-3.18,1.15c-6-1.24-9.22-3.91-9.22-5.48,0-1.94,5.42-5.4,16.22-5.4Zm0,0"/><path class="cls-5" d="M172.53,316.51v-.2c2.44-1.71,3.86-3.82,3.86-6.14v-6.53c0-5.72-9-10-20.85-10s-20.85,4.32-20.85,10v1.75c-2.52,1.69-3.86,3.74-3.86,6v6.53c0,2.55,1.73,4.85,4.63,6.65v4.94c0,5.87,9.16,10.46,20.85,10.46s20.85-4.6,20.85-10.46V323c0-2.46-1.61-4.67-4.63-6.45Zm3.09,6.45c0,4.94-9,9.27-19.31,9.27l-1.32,0-.39,0-1.14-.07-.73-.06-.32,0c-6.35-.68-11.76-3-14.12-5.87l-.09-.12-.1-.14a27,27,0,0,0,3.54,1.22c3.43,2.25,8.76,3.54,14.69,3.54,10.47,0,17.76-4.05,17.76-7.7a4.14,4.14,0,0,0-1.89-3.11c0-.06,0-.11.05-.17s.06-.16.08-.24l.07-.28c0-.08,0-.16.05-.25s0-.19,0-.28,0-.17,0-.25a.45.45,0,0,0,0-.07c1.6,1.08,3.1,2.64,3.1,4.65ZM159.5,333.64h.07c.44,0,.88-.08,1.31-.13l.33,0,1.28-.18v4.63c-1,.16-2,.29-3.09.37v-4.63ZM164,333l.13,0c.42-.09.83-.18,1.23-.28l.15,0,.81-.22v4.62q-1.11.32-2.32.57Zm3.86-1.06.12,0,.17-.06.94-.36.26-.11,0,0V336c-.49.22-1,.42-1.54.61v-4.62Zm3.09-1.31.39-.21.22-.12c.3-.17.59-.34.87-.52l.06,0v4.5a15.05,15.05,0,0,1-1.55,1v-4.57Zm-30.89-.88c.48.3,1,.6,1.54.87v4.58a15.5,15.5,0,0,1-1.54-1Zm-4.63-11.58.06,0c.28.18.57.35.87.52l.22.12.39.21V323H135.9l-.43-.29Zm3.4,1.73.94.36.17.06.12,0V325c-.54-.19-1.05-.39-1.55-.61v-4.6l.05,0,.26.11Zm3.74,1.21c.4.1.81.19,1.23.28l.13,0V326l-.13,0c-.42-.09-.83-.18-1.23-.28l-1-.26v-4.63l.8.22.16,0Zm4.51.81c.43.05.87.1,1.31.13h.17v4.62c-.53,0-1.06-.09-1.58-.15l-.75-.1-.76-.12V321.7l1.27.18.33,0Zm4.57.27c.52,0,1,0,1.54,0v4.64h0q-.74,0-1.49,0c-.52,0-1,0-1.55,0v-4.62h.1c.48,0,1,0,1.44,0Zm-15.44-14.45,0,0c.17.21.35.43.55.63l.14.14.55.52.14.12.13.11v4.3a5.07,5.07,0,0,1-1.54-3.43Zm3.09,2.7.06,0c.28.18.57.35.87.52l.22.12.39.21v4.57a15.5,15.5,0,0,1-1.54-1Zm3.09,1.6.05,0,.26.11.94.36.17.06.12,0v4.62c-.54-.19-1.05-.39-1.55-.61Zm3.09,1.08.8.22.16,0c.4.1.81.19,1.23.28l.13,0v4.63c-.8-.17-1.57-.36-2.32-.57Zm3.86.86,1.28.18.33,0c.43,0,.87.1,1.31.13h.17V319c-1.06-.08-2.09-.21-3.09-.37Zm6.18.49c.48,0,1,0,1.44,0h.1V319c-.51,0-1,0-1.54,0s-1,0-1.55,0v-4.63h.1c.48,0,1,0,1.44,0Zm3.26-.14c.44,0,.88-.08,1.31-.13l.34,0,1.27-.18v4.62l-.87.14-.46.06c-.58.07-1.17.12-1.76.17v-4.62h.17Zm5.82-.95.16,0,.8-.22v4.63l-.3.08h0l-.52.14-1.3.31-.19,0V313.7l.13,0c.42-.09.83-.18,1.23-.28Zm2.8-.85.94-.36.26-.11,0,0v4.6c-.49.22-1,.42-1.54.61v-4.62l.12,0,.17-.06Zm3.41-1.53c.3-.17.59-.34.87-.52l.06,0v4.5a14.82,14.82,0,0,1-1.54,1v-4.57l.39-.21.22-.12Zm-21.06,17.32h.38c.5,0,1,0,1.53,0h1.78l.36,0,.42,0,.63,0,.45,0,.57,0,.45-.05.56-.06.45-.06.54-.07.44-.08.52-.09.44-.08.5-.1.44-.09.48-.11.42-.11.47-.12L162,327l.46-.13.4-.12.44-.14.39-.14.42-.15.37-.14.41-.16.36-.15.39-.17.34-.16.37-.18.33-.17L167,325l.32-.17.34-.2.3-.18.32-.21.28-.19.3-.21.26-.2.28-.22.24-.2.26-.23.22-.21.24-.23.2-.22.22-.24.18-.22.19-.25.17-.23.12-.18a2.54,2.54,0,0,1,1.06,1.7c0,2.09-5.72,6.15-16.22,6.15a33.3,33.3,0,0,1-7.86-.87l1.32.08Zm13.5-3.34v-4.65l.15-.05.84-.31.55-.24v4.64c-.49.22-1,.42-1.54.61ZM160,321.26c.32-.07.65-.14,1-.22l.74-.22v4.65c-.74.22-1.52.4-2.32.57v-4.64l.61-.14Zm6.35,2.36v-4.45c.53-.16,1-.33,1.54-.51v4a15.51,15.51,0,0,1-1.54,1ZM155.53,322l.75-.09c.37,0,.75-.08,1.12-.14l.46-.08v4.64l-.2,0-.7.1-.55.07-1.21.12-.41,0h0v-4.64l.76-.06ZM171,317.9a4.26,4.26,0,0,1-.38,1.72l-.07.15a6.4,6.4,0,0,1-.93,1.38l-.14.16,0,0V318q.81-.36,1.55-.76Zm-27.8,13.45c.49.21,1,.41,1.54.59v4.62c-.53-.19-1.05-.39-1.54-.61Zm3.09,1.08c.75.22,1.52.41,2.31.58v4.63q-1.2-.25-2.31-.57Zm3.86.86.37.05.56.08.88.11.89.09.4,0v4.63c-1.06-.08-2.09-.2-3.09-.36Zm24.71-25.55v2.44a5.07,5.07,0,0,1-1.55,3.43v-4.3l.13-.11.14-.12c.19-.17.38-.34.55-.52l.14-.14c.2-.2.38-.42.55-.63l0,0Zm-19.31-12.58c10.82,0,19.31,3.73,19.31,8.49,0,4.94-9,9.27-19.31,9.27s-19.31-4.33-19.31-9.27c0-4.76,8.48-8.49,19.31-8.49Zm-20.85,12.15v2.87a5,5,0,0,0,0,.53c0,.06,0,.12,0,.18s0,.23.05.35,0,.14,0,.2,0,.21.08.31a2.08,2.08,0,0,0,.07.22c0,.09.06.19.1.29l.09.22c0,.09.08.18.12.28l.11.22.15.27.14.22.17.26.15.22.19.25.18.21.21.24.2.21.24.24.21.2.26.23.23.19.28.23.25.18.31.22.25.18.34.22.26.17.38.22.26.15.48.26.19.09.69.33.25.11.48.21.31.12.45.18.34.12.45.16.36.12.46.14.38.11.46.13.4.11.47.12.41.1.49.11.42.09.5.1.43.08.52.09.43.07.54.08.43.06.56.06.43,0,.58,0,.43,0,.61,0,.41,0h.09c-.61,0-1.24,0-1.86,0-10.29,0-19.31-4.33-19.31-9.27a5.43,5.43,0,0,1,2.31-4.06Zm-2.31,10.59v-2.44l0,0c.17.21.35.43.55.63l.14.14c.18.18.36.35.55.52l.14.12.13.11v4.3a5.07,5.07,0,0,1-1.54-3.43ZM137,329.49V327a11.08,11.08,0,0,0,1.55,1.56v4.31a5.07,5.07,0,0,1-1.55-3.43Zm17.76,8.89v-4.63h.11c.47,0,1,0,1.43,0s1,0,1.44,0h.1v4.63c-.51,0-1,0-1.55,0s-1,0-1.54,0ZM175.62,327v2.44a5.07,5.07,0,0,1-1.54,3.43v-4.3l.13-.11.14-.12c.19-.17.37-.34.55-.52l.14-.14c.2-.2.38-.42.55-.63l0,0Zm0,0"/><path class="cls-5" d="M599.58,317.95a1,1,0,0,0-.79-.66l-4.92-.71-2.2-4.46a1,1,0,0,0-1.75,0l-2.2,4.46-4.92.71a1,1,0,0,0-.54,1.66l3.56,3.47-.84,4.9a1,1,0,0,0,1.42,1l4.4-2.31,4.4,2.31a1,1,0,0,0,1.41-1l-.84-4.9,3.56-3.47a1,1,0,0,0,.25-1ZM594,321.38a1,1,0,0,0-.28.86l.59,3.46-3.1-1.63a1,1,0,0,0-.91,0l-3.1,1.63.59-3.46a1,1,0,0,0-.28-.86L585,318.93l3.47-.5a1,1,0,0,0,.73-.53l1.55-3.14,1.55,3.14a1,1,0,0,0,.73.53l3.47.5Zm0,0"/><path class="cls-5" d="M574.42,312.3a9.67,9.67,0,0,0,9.11-6.43,1,1,0,0,0-.59-1.24,9.59,9.59,0,0,0-7.34.37,22.1,22.1,0,0,1,1.94-2.22,1,1,0,0,0-1.38-1.38q-.75.75-1.42,1.56a9.64,9.64,0,0,0-4-7.52,1,1,0,0,0-1.36.23,9.65,9.65,0,0,0,1.81,13.12,23.74,23.74,0,0,0-.84,2.26,9.86,9.86,0,0,0-.67-1.25,9.59,9.59,0,0,0-6-4.25,1,1,0,0,0-1.16.74,9.67,9.67,0,0,0,6.78,11.39,24,24,0,0,0,.13,3.1c-.23-.2-.46-.39-.71-.57a9.59,9.59,0,0,0-7.18-1.76,1,1,0,0,0-.82,1.11,9.66,9.66,0,0,0,9.52,8.2c.33,0,.66,0,1-.05a23.69,23.69,0,0,0,1.38,2.71,9.65,9.65,0,0,0-9.08,1.71,1,1,0,0,0-.14,1.37A9.59,9.59,0,0,0,569.8,337a9.7,9.7,0,0,0,1,0,9.57,9.57,0,0,0,5.55-1.77,24,24,0,0,0,3.57,2.89,1,1,0,1,0,1.07-1.63,22.12,22.12,0,0,1-3.43-2.8,21.75,21.75,0,0,1-5.11-8A9.67,9.67,0,0,0,578.21,314a1,1,0,0,0-1.21-.66,9.59,9.59,0,0,0-5.76,4.63l-.11.22A22,22,0,0,1,572,312a9.56,9.56,0,0,0,2.38.3Zm-5.27,3.31a7.72,7.72,0,0,1-5-7.87,7.71,7.71,0,0,1,5,7.87Zm-3.55,8.68a7.65,7.65,0,0,1-2.83-4h.12a7.72,7.72,0,0,1,7.38,5.52,7.65,7.65,0,0,1-4.68-1.5ZM570,335a7.65,7.65,0,0,1-4.48-2,7.72,7.72,0,0,1,9.27.92A7.65,7.65,0,0,1,570,335Zm3-16.17a7.65,7.65,0,0,1,3.61-3.33,7.72,7.72,0,0,1-4.47,8.17,7.65,7.65,0,0,1,.86-4.84Zm3.44-12.1a7.65,7.65,0,0,1,4.88-.59,7.72,7.72,0,0,1-8.41,4,7.64,7.64,0,0,1,3.53-3.42Zm-6.81-4.23a7.64,7.64,0,0,1,.77-4.85,7.72,7.72,0,0,1,1.55,9.19,7.65,7.65,0,0,1-2.32-4.33Zm0,0"/><path class="cls-5" d="M611.46,327.74a9.66,9.66,0,0,0,9.52-8.2,1,1,0,0,0-.82-1.11,9.64,9.64,0,0,0-7.89,2.35,24.09,24.09,0,0,0,.13-3.1,9.65,9.65,0,0,0,6.78-11.39,1,1,0,0,0-1.16-.74,9.59,9.59,0,0,0-6,4.25,9.82,9.82,0,0,0-.67,1.25,23.81,23.81,0,0,0-.84-2.26,9.67,9.67,0,0,0,1.81-13.12,1,1,0,0,0-1.36-.23,9.59,9.59,0,0,0-3.92,6.26,9.76,9.76,0,0,0-.13,1.25q-.67-.8-1.42-1.55a1,1,0,0,0-1.38,1.38A21.92,21.92,0,0,1,606,305a9.59,9.59,0,0,0-7.34-.37,1,1,0,0,0-.59,1.24,9.67,9.67,0,0,0,9.11,6.43,9.56,9.56,0,0,0,2.38-.3,22,22,0,0,1,.9,6.16,9.62,9.62,0,0,0-5.87-4.86,1,1,0,0,0-1.21.66,9.65,9.65,0,0,0,5.79,11.71,21.75,21.75,0,0,1-5.11,8,22.09,22.09,0,0,1-3.43,2.8,1,1,0,1,0,1.07,1.63,24,24,0,0,0,3.57-2.89,9.66,9.66,0,0,0,13-1.77,1,1,0,0,0-.14-1.37,9.6,9.6,0,0,0-7.07-2.14,9.76,9.76,0,0,0-2,.42,23.63,23.63,0,0,0,1.38-2.7,9.7,9.7,0,0,0,1,.05Zm6-20a7.71,7.71,0,0,1-5,7.87,7.72,7.72,0,0,1,5-7.87Zm1.38,12.53a7.73,7.73,0,0,1-7.51,5.52,7.72,7.72,0,0,1,7.51-5.52Zm-18.51-14.1a7.71,7.71,0,0,1,8.41,4,7.72,7.72,0,0,1-8.41-4Zm9.37.7a7.71,7.71,0,0,1,1.55-9.19,7.72,7.72,0,0,1-1.55,9.19Zm1.6,25a7.65,7.65,0,0,1,4.79,1.1,7.72,7.72,0,0,1-9.27.92,7.65,7.65,0,0,1,4.48-2Zm-1.79-8.22a7.71,7.71,0,0,1-4.47-8.17,7.72,7.72,0,0,1,4.47,8.17Zm0,0"/><path class="cls-5" d="M470.79,309.28V295.77a3.93,3.93,0,0,0-3.92-3.92H421.32a3.93,3.93,0,0,0-3.92,3.92V323.3a3.93,3.93,0,0,0,3.92,3.92h12.91l-1.48,1.59h-2.21a.91.91,0,0,0,0,1.82h12.68v8.79a2.3,2.3,0,0,0,2.3,2.3h9.8a2.3,2.3,0,0,0,2.3-2.3v-1.85h12.26a3.13,3.13,0,0,0,3.12-3.12V312.27a3.13,3.13,0,0,0-2.21-3Zm.39,3v.25h-21v-.25a1.3,1.3,0,0,1,1.3-1.3h18.36a1.3,1.3,0,0,1,1.3,1.3ZM455.31,320h-5.09v-5.63h21v18H457.62V322.27a2.3,2.3,0,0,0-2.3-2.3Zm.48,3.5H445v-1.2a.48.48,0,0,1,.48-.48h9.79a.48.48,0,0,1,.48.48ZM469,296.68v12.47H451.52a3.13,3.13,0,0,0-3.12,3.12V320h-2.88a2.3,2.3,0,0,0-2.3,2.3h-24V296.68ZM445,325.29h10.75V336.4H445Zm-23.72-31.62h45.54a2.1,2.1,0,0,1,1.89,1.19H419.43a2.1,2.1,0,0,1,1.89-1.19Zm-1.95,30.42h23.84v1.31H421.32a2.1,2.1,0,0,1-1.95-1.31Zm15.86,4.73,1.48-1.59h6.5v1.59Zm20.07,11.09h-9.8a.48.48,0,0,1-.48-.48v-1.2h10.75v1.2a.48.48,0,0,1-.48.48Zm14.56-4.15H457.62V334.2h13.56v.25a1.3,1.3,0,0,1-1.3,1.3Zm0,0"/><path class="cls-5" d="M294.56,315.1c1,.41,1.66.37,2.24-.62a19.71,19.71,0,0,1,7.09-7,4.29,4.29,0,0,1,1.88-.57c-1.52,3.84-4.44,6.33-7.76,8.48,2.12,1.22,3.31,1,4.72-.82a19.65,19.65,0,0,1,8.33-6c-.56,2.09-2,3.14-3.25,4.29s-2.73,2.3-4.12,3.46c1.5,1,2.44.92,3.49-.38a18.65,18.65,0,0,1,7.28-5.89,18.22,18.22,0,0,1,1.83-.56l.35.55-8.48,7.22c2.38.87,2.65.66,4.17-1.05a21.19,21.19,0,0,1,8.36-5.91,3.55,3.55,0,0,1,.77-.05l-.63,2.1,5-3.33.47.49c-1.32,3.6-4.12,6.22-6.58,9.08,2,.82,3,.47,4.23-1.21,2.59-3.63,6.31-5.81,10.21-7.72a1.43,1.43,0,0,1,1.08.12c-1.67,2.43-4.31,3.88-6.18,6.06l.16.38,7.55-2,.28.38c-.43.44-.77,1-1.29,1.29-2.54,1.18-5.12,2.27-7.7,3.36-.74.31-1.52.51-2.47.82l6.11,2.32-.15.51a9.33,9.33,0,0,1-5.88-.24c-1.42-.47-2.72-1.28-4.12-1.81s-2.81-.88-4.22-1.31L317,320l7.27,5.18-.23.4a10.21,10.21,0,0,1-6.41-2.67,9.91,9.91,0,0,1-1.39-1.49c-1.62-2.26-4-2.54-6.43-2.54l-.31.38,7.53,6.16a2.56,2.56,0,0,1-3.16-.4,30.7,30.7,0,0,1-4.66-4.76c-1.39-2-3.25-1.89-5.3-1.94,2,2.85,5.84,3.95,7.11,8a9.32,9.32,0,0,1-2.43-1.16,57.38,57.38,0,0,1-5.65-6,4.39,4.39,0,0,0-3.77-1.83c1.85,3,5.43,4.58,6.26,8.49a20,20,0,0,1-7-7.18,5.8,5.8,0,0,0-.66-1.13,2.12,2.12,0,0,0-1.32-.56,19.5,19.5,0,0,1,3.73,10.81l-.37.2c-1.06-1.85-2.24-3.65-3.14-5.57a24.86,24.86,0,0,1-1.43-4.55c-.19-.76-.42-1.24-1.29-1.22-1.25,0-2.5,0-4.25,0a13.22,13.22,0,0,0,1.38,1.84,22.32,22.32,0,0,1,6,8.34c.14.36.29.72.42,1.08,0,.08,0,.18-.08.56a8.19,8.19,0,0,1-1.72-1.24c-2.08-2.61-4.09-5.27-6.13-7.91-.69-.89-1.28-2.31-2.14-2.52a22.28,22.28,0,0,0-5.22-.08l-.22.73c.73.53,1.46,1.06,2.2,1.58,1.86,1.3,3.75,2.56,5.59,3.89a3.16,3.16,0,0,1,1,1.73,13.58,13.58,0,0,1-9.51-5.93,2.27,2.27,0,0,0-3.1-.78,24.66,24.66,0,0,0-9.48,6.82c-.16.18-.33.36-.47.56-.81,1.11-1.7,2.09-3.25,1.31-1.08-.54-1.4-2.12-.87-3.79a6,6,0,0,1,4.21-3.91c3.77-1.25,7.6-2.33,11.4-3.48l1.17-.39c-3.11-3.88-6.54-7.43-7.57-12.41a16.37,16.37,0,0,1,9.18,12.23l.38.07a16.44,16.44,0,0,0,.94-2,16.91,16.91,0,0,1,6.82-9.16,21.44,21.44,0,0,1,2.22-1.12l.5.49-4.18,6.73.17.17,6.65-5.07.61.49a9.3,9.3,0,0,1-1.22,2.32c-1.75,1.81-3.62,3.5-5.46,5.22-.49.46-1,.87-1.52,1.3l.06.43c1.27.07,2.54.19,3.8.16.25,0,.53-.58.73-.93,1.15-2.07,2.18-4.21,3.47-6.19a7.64,7.64,0,0,1,2.82-2.17c.33,2-.74,3.47-1.63,4.95S295.62,313.56,294.56,315.1Zm18.78,2.8,1.25.19c1,.12,2.21.63,2.94.24s.72-1.69,1.06-2.59c.13-.34.28-.68.53-1.3Zm10.58.85.17.47,2.5-1.32-.25-.49C325.13,317,324.57,318,323.92,318.74Zm-36.8-5.93-.65-.6-1.91,2.16.56.51Z"/></g></g></svg>