<svg xmlns="http://www.w3.org/2000/svg" viewBox="0 0 40 48"><defs><style>.cls-1{opacity:0.8;}.cls-2{fill:#fff;}</style></defs><title>Ресурс 38</title><g id="Слой_2" data-name="Слой 2"><g id="Слой_1-2" data-name="Слой 1"><g class="cls-1"><path class="cls-2" d="M39.2,46.4H36.8V43.2h-4V35a6.44,6.44,0,0,0-2.87-5.37L21.44,24l8.49-5.66A6.44,6.44,0,0,0,32.8,13V4.8h4V1.6h2.4a.8.8,0,0,0,0-1.6H.8a.8.8,0,0,0,0,1.6H3.2V4.8h4V13a6.44,6.44,0,0,0,2.87,5.37L18.56,24l-8.49,5.66A6.44,6.44,0,0,0,7.2,35V43.2h-4v3.2H.8A.8.8,0,0,0,.8,48H39.2a.8.8,0,0,0,0-1.6ZM4.8,3.2V1.6H35.2V3.2ZM11,17A4.84,4.84,0,0,1,8.8,13V4.8H31.2V13A4.84,4.84,0,0,1,29,17l-9,6ZM8.8,35A4.84,4.84,0,0,1,11,31l9-6,9,6a4.84,4.84,0,0,1,2.16,4V43.2H8.8Zm-4,9.78H35.2v1.6H4.8Zm0,0"/><path class="cls-2" d="M12.73,14.35A1.64,1.64,0,0,1,12,13V11.2a.8.8,0,0,0-1.6,0V13a3.24,3.24,0,0,0,1.45,2.7l3.71,2.47a.79.79,0,0,0,.44.14.8.8,0,0,0,.45-1.47Zm0,0"/><path class="cls-2" d="M28.15,33l-3.71-2.47a.8.8,0,0,0-.89,1.33l3.71,2.47A1.64,1.64,0,0,1,28,35.71v1.78a.8.8,0,0,0,1.6,0V35.71A3.24,3.24,0,0,0,28.15,33Zm0,0"/></g></g></g></svg>