<svg xmlns="http://www.w3.org/2000/svg" viewBox="0 0 298 204.87"><defs><style>.cls-1{font-size:16px;font-family:OpenSans-Bold, Open Sans;font-weight:700;}.cls-1,.cls-3{fill:#fff;}.cls-2{fill:none;stroke:#fff;stroke-miterlimit:10;stroke-width:0.7px;}</style></defs><title>Ресурс 88</title><g id="Слой_2" data-name="Слой 2"><g id="Слой_1-2" data-name="Слой 1"><text class="cls-1" transform="translate(264.63 91.71)">49%</text><text class="cls-1" transform="translate(0.63 197.71)">48%</text><text class="cls-1" transform="translate(19.63 58.71)">1%</text><text class="cls-1" transform="translate(71.63 13.71)">1%</text><text class="cls-1" transform="translate(190.63 13.71)">1%</text><polyline class="cls-2" points="19.25 63.21 63.25 63.21 139.34 84.54"/><circle class="cls-3" cx="139.22" cy="84.5" r="2.63" transform="translate(20.28 195.75) rotate(-74.34)"/><polyline class="cls-2" points="70.85 18.21 115.92 18.21 142.39 59.11"/><circle class="cls-3" cx="142.32" cy="59" r="2.63" transform="translate(-9.22 86.81) rotate(-32.91)"/><polyline class="cls-2" points="148.05 54.07 169.75 18.21 214.15 18.21"/><circle class="cls-3" cx="148.11" cy="53.96" r="2.63" transform="translate(25.26 152.73) rotate(-58.81)"/><polyline class="cls-2" points="208.5 96.48 240.92 96.48 298 96.48"/><circle class="cls-3" cx="208.63" cy="96.48" r="2.63"/><line class="cls-2" y1="202.23" x2="89.5" y2="202.23"/><circle class="cls-3" cx="89.37" cy="202.23" r="2.63"/></g></g></svg>