<svg xmlns="http://www.w3.org/2000/svg" viewBox="0 0 324.71 173.66"><defs><style>.cls-1{fill:none;stroke:#fff;stroke-miterlimit:10;stroke-width:0.7px;}.cls-2,.cls-3{fill:#fff;}.cls-3{font-size:16px;font-family:OpenSans-Bold, Open Sans;font-weight:700;}</style></defs><title>Ресурс 90</title><g id="Слой_2" data-name="Слой 2"><g id="Слой_1-2" data-name="Слой 1"><polyline class="cls-1" points="40.96 47.21 85.96 47.21 126.16 64.24"/><circle class="cls-2" cx="126.04" cy="64.18" r="2.63" transform="translate(17.78 155.21) rotate(-67.05)"/><polyline class="cls-1" points="7.96 78.21 53.46 78.21 101.97 73.45"/><circle class="cls-2" cx="101.84" cy="73.47" r="2.63" transform="translate(-6.68 10.29) rotate(-5.6)"/><polyline class="cls-1" points="0.96 119.21 46.96 119.21 110.1 97.04"/><circle class="cls-2" cx="109.98" cy="97.08" r="2.63" transform="translate(-25.95 41.92) rotate(-19.35)"/><polyline class="cls-1" points="96.56 18.21 142.96 18.21 149.04 53.75"/><circle class="cls-2" cx="149.02" cy="53.62" r="2.63" transform="translate(-6.91 25.9) rotate(-9.71)"/><polyline class="cls-1" points="164.4 42.63 194.46 18.21 239.86 18.21"/><circle class="cls-2" cx="164.51" cy="42.55" r="2.63" transform="translate(10 113.26) rotate(-39.09)"/><line class="cls-1" x1="235.21" y1="86.23" x2="324.71" y2="86.23"/><circle class="cls-2" cx="235.34" cy="86.23" r="2.63"/><line class="cls-1" y1="171.41" x2="89.5" y2="171.03"/><circle class="cls-2" cx="89.37" cy="171.03" r="2.63" transform="matrix(1, 0, 0, 1, -0.73, 0.38)"/><text class="cls-3" transform="translate(39.96 42.71)">5%</text><text class="cls-3" transform="translate(7.96 73.71)">2%</text><text class="cls-3" transform="translate(0.96 114.71)">2%</text><text class="cls-3" transform="translate(0.19 166.9) rotate(-0.24)">20%</text><text class="cls-3" transform="translate(96.96 13.71)">5%</text><text class="cls-3" transform="translate(216.96 13.71)">1%</text><text class="cls-3" transform="translate(291.96 81.71)">65%</text></g></g></svg>