<svg xmlns="http://www.w3.org/2000/svg" viewBox="0 0 324.68 196.87"><defs><style>.cls-1{font-size:16px;font-family:OpenSans-Bold, Open Sans;font-weight:700;}.cls-1,.cls-3{fill:#fff;}.cls-2{fill:none;stroke:#fff;stroke-miterlimit:10;stroke-width:0.7px;}</style></defs><title>Ресурс 89</title><g id="Слой_2" data-name="Слой 2"><g id="Слой_1-2" data-name="Слой 1"><text class="cls-1" transform="translate(72 13.71)">11%</text><text class="cls-1" transform="translate(292 73.71)">50%</text><text class="cls-1" transform="translate(20 189.71)">33%</text><text class="cls-1" transform="translate(16 54.71)">4%</text><text class="cls-1" transform="translate(0 105.71)">2%</text><line class="cls-2" x1="235" y1="78.23" x2="324.5" y2="78.23"/><circle class="cls-3" cx="235.13" cy="78.23" r="2.63"/><line class="cls-2" x1="20.5" y1="194.23" x2="110" y2="194.23"/><circle class="cls-3" cx="109.87" cy="194.23" r="2.63"/><polyline class="cls-2" points="0 110.21 47.5 110.21 93.28 86.37"/><circle class="cls-3" cx="93.17" cy="86.43" r="2.63" transform="translate(-29.39 52.81) rotate(-27.51)"/><polyline class="cls-2" points="15.77 59.21 62 59.21 104.13 73.41"/><circle class="cls-3" cx="104.01" cy="73.37" r="2.63" transform="translate(1.26 148.49) rotate(-71.37)"/><polyline class="cls-2" points="72.6 18.21 119.5 18.21 146.02 54.2"/><circle class="cls-3" cx="145.94" cy="54.09" r="2.63" transform="translate(-3.64 97.12) rotate(-36.38)"/></g></g></svg>